HIERARCHY
ROOT Hips
{
	OFFSET 0.000000 0.000000 0.000000
	CHANNELS 6 Xposition Yposition Zposition Zrotation Yrotation Xrotation 
	JOINT RightUpLeg
	{
		OFFSET -2.858947 0.000000 0.000000
		CHANNELS 3 Zrotation Yrotation Xrotation
		JOINT RightLeg
		{
			OFFSET 0.000000 -9.173077 0.000000
			CHANNELS 3 Zrotation Yrotation Xrotation
			JOINT RightFoot
			{
				OFFSET 0.000000 -8.989213 0.000000
				CHANNELS 3 Zrotation Yrotation Xrotation
				End Site
				{
					OFFSET 0.000000 0.000000 0.000000
				}
			}
		}
	}
	JOINT LeftUpLeg
	{
		OFFSET 2.858947 0.000000 0.000000
		CHANNELS 3 Zrotation Yrotation Xrotation
		JOINT LeftLeg
		{
			OFFSET 0.000000 -9.173077 0.000000
			CHANNELS 3 Zrotation Yrotation Xrotation
			JOINT LeftFoot
			{
				OFFSET 0.000000 -8.989213 0.000000
				CHANNELS 3 Zrotation Yrotation Xrotation
				End Site
				{
					OFFSET 0.000000 0.000000 0.000000
				}
			}
		}
	}
	JOINT Spine
	{
		OFFSET 0.000000 5.045599 0.000000
		CHANNELS 3 Zrotation Yrotation Xrotation
		JOINT Spine1
		{
			OFFSET 0.000000 5.170119 0.000000
			CHANNELS 3 Zrotation Yrotation Xrotation
			JOINT Neck
			{
				OFFSET 0.000000 2.380465 0.000000
				CHANNELS 3 Zrotation Yrotation Xrotation
				JOINT Head
				{
					OFFSET 0.000000 2.353345 0.000000
					CHANNELS 3 Zrotation Yrotation Xrotation
					End Site
					{
						OFFSET 0.000000 0.000000 0.000000
					}
				}
			}
			JOINT LeftArm
			{
				OFFSET 3.216773 0.000000 0.000000
				CHANNELS 3 Zrotation Yrotation Xrotation
				JOINT LeftForeArm
				{
					OFFSET 5.783032 0.000000 0.000000
					CHANNELS 3 Zrotation Yrotation Xrotation
					JOINT LeftHand
					{
						OFFSET 5.029427 0.000000 0.000000
						CHANNELS 3 Zrotation Yrotation Xrotation
						End Site
						{
							OFFSET 0.000000 0.000000 0.000000
						}
					}
				}
			}
			JOINT RightArm
			{
				OFFSET -3.216773 0.000000 0.000000
				CHANNELS 3 Zrotation Yrotation Xrotation
				JOINT RightForeArm
				{
					OFFSET -5.783032 0.000000 0.000000
					CHANNELS 3 Zrotation Yrotation Xrotation
					JOINT RightHand
					{
						OFFSET -5.029427 0.000000 0.000000
						CHANNELS 3 Zrotation Yrotation Xrotation
						End Site
						{
							OFFSET 0.000000 0.000000 0.000000
						}
					}
				}
			}
		}
	}
}
MOTION
Frames: 16
Frame Time: 0.041667
0.000000 0.000000 0.000000 0.000000 0.000000 0.000000 0.000000 0.000000 0.000000 0.000000 0.000000 0.000000 0.000000 0.000000 0.000000 0.000000 0.000000 0.000000 0.000000 0.000000 0.000000 0.000000 0.000000 0.000000 0.000000 0.000000 0.000000 0.000000 0.000000 0.000000 0.000000 0.000000 0.000000 0.000000 0.000000 0.000000 0.000000 0.000000 0.000000 0.000000 0.000000 0.000000 0.000000 0.000000 0.000000 0.000000 0.000000 0.000000 0.000000 0.000000 0.000000 0.000000 0.000000 0.000000 
0.040167 0.026609 -0.038260 -2.131806 -20.675112 166.719481 166.567482 63.870328 157.659098 96.265465 -80.353740 -74.320456 0.000000 0.000000 0.000000 2.945589 -77.640673 -2.124275 158.619764 -5.901341 177.758719 0.000000 0.000000 0.000000 40.203385 27.116688 40.439849 -3.183559 -40.031810 40.157503 117.693175 -10.926497 -106.271146 0.000000 0.000000 0.000000 18.516503 -52.201387 -120.454348 -25.769962 -41.034527 -16.153102 0.000000 0.000000 0.000000 57.119547 47.656019 -102.118288 21.545821 -2.982633 135.693538 0.000000 0.000000 0.000000 
0.126127 0.090448 -0.126653 -1.386556 -15.719033 166.771841 166.295285 64.088006 157.378446 101.599644 -80.200136 -79.219587 0.000000 0.000000 0.000000 4.348323 -77.796340 -3.725075 157.303601 -6.208695 177.619944 0.000000 0.000000 0.000000 39.823333 27.296796 40.227970 -2.905439 -40.479608 41.782419 117.245292 -10.105977 -105.114760 0.000000 0.000000 0.000000 25.171747 -49.463277 -126.734597 -23.103098 -31.755619 -20.601988 0.000000 0.000000 0.000000 53.583660 50.503494 -106.767571 21.413046 -4.630459 134.220116 0.000000 0.000000 0.000000 
0.358835 0.273672 -0.375908 1.397493 -1.238363 166.295968 165.598688 64.014773 157.285542 111.448272 -79.382774 -87.843083 0.000000 0.000000 0.000000 2.855017 -78.042841 -3.050741 155.722466 -5.152603 176.508904 0.000000 0.000000 0.000000 38.922451 27.955479 40.067703 -2.914886 -40.832695 44.715380 117.838931 -8.022706 -102.565706 0.000000 0.000000 0.000000 30.000513 -45.650543 -131.927016 -20.015777 -16.547310 -24.665517 0.000000 0.000000 0.000000 47.797237 52.340607 -114.560010 20.962026 -7.552728 130.364570 0.000000 0.000000 0.000000 
0.606859 0.469785 -0.642323 4.632642 14.329392 166.438692 165.417537 63.894343 158.023967 118.364965 -78.442359 -93.686679 0.000000 0.000000 0.000000 0.860043 -78.023894 -1.862755 154.442011 -3.801314 175.452233 0.000000 0.000000 0.000000 38.060877 28.722168 39.975328 -3.165129 -41.199845 47.463476 118.548971 -6.019000 -99.962209 0.000000 0.000000 0.000000 31.957697 -43.181521 -134.640869 -18.193717 -7.461953 -25.455984 0.000000 0.000000 0.000000 43.416415 52.685135 -121.488629 20.859661 -10.614753 126.796260 0.000000 0.000000 0.000000 
0.707245 0.546117 -0.747118 5.748851 21.839161 166.647176 165.881253 63.844292 159.108000 120.657149 -78.218275 -95.748057 0.000000 0.000000 0.000000 2.094132 -77.975571 -3.630773 153.720224 -3.367904 175.178411 0.000000 0.000000 0.000000 37.590619 29.174559 39.913204 -3.299643 -41.622719 48.504657 118.669401 -5.452038 -98.799608 0.000000 0.000000 0.000000 31.937370 -43.262712 -134.952080 -17.081444 -4.970899 -23.852453 0.000000 0.000000 0.000000 42.493592 53.430487 -123.442460 20.952707 -11.810427 125.913636 0.000000 0.000000 0.000000 
0.918982 0.713420 -0.974348 9.286843 34.031547 167.033792 167.006827 63.193293 161.201521 123.618310 -77.259924 -97.874036 0.000000 0.000000 0.000000 3.349638 -77.127944 -5.450289 153.518337 -2.243221 174.491184 0.000000 0.000000 0.000000 37.181935 29.729676 40.056327 -3.227036 -42.145805 50.009703 118.412613 -4.098781 -97.091911 0.000000 0.000000 0.000000 33.560237 -42.291302 -136.489665 -15.984304 -2.228814 -24.067855 0.000000 0.000000 0.000000 41.742284 53.720329 -124.623604 20.688894 -12.717739 124.743174 0.000000 0.000000 0.000000 
1.114366 0.867767 -1.183947 13.412326 43.689660 168.211850 168.299864 62.900838 163.548470 123.883813 -76.209775 -96.927221 0.000000 0.000000 0.000000 6.381097 -76.426129 -8.932953 153.347214 -1.498647 173.983223 0.000000 0.000000 0.000000 36.975246 30.043222 40.248703 -3.089502 -42.520561 51.255454 118.130936 -2.885210 -95.666990 0.000000 0.000000 0.000000 35.745201 -41.325459 -138.411038 -15.269071 -0.142484 -24.305722 0.000000 0.000000 0.000000 40.831772 54.204713 -125.334190 20.597023 -13.239536 124.286289 0.000000 0.000000 0.000000 
1.146145 0.893059 -1.218245 13.695398 42.227627 168.041081 169.296812 63.559234 165.285524 121.827379 -75.440621 -93.795026 0.000000 0.000000 0.000000 10.410565 -76.018981 -12.991997 153.209203 -1.581363 174.009779 0.000000 0.000000 0.000000 37.233403 29.769578 40.350596 -3.315782 -42.553940 51.991957 118.139870 -2.838013 -95.356469 0.000000 0.000000 0.000000 37.144406 -40.919807 -139.874843 -15.792507 -0.267235 -24.677661 0.000000 0.000000 0.000000 39.912449 54.902307 -125.962267 20.964513 -13.137172 124.973651 0.000000 0.000000 0.000000 
1.212493 0.943234 -1.287345 13.638967 32.515198 167.601736 173.695563 64.964033 170.502968 119.739992 -73.588479 -89.221443 0.000000 0.000000 0.000000 20.784368 -75.142210 -22.975295 150.273041 -2.403145 173.902149 0.000000 0.000000 0.000000 37.965941 28.730747 40.611021 -3.581598 -42.278656 52.664266 117.939226 -2.875236 -95.904783 0.000000 0.000000 0.000000 38.252324 -40.556454 -141.641185 -17.383509 -0.910649 -24.803593 0.000000 0.000000 0.000000 36.241674 55.751262 -128.838910 21.576421 -13.323370 126.012250 0.000000 0.000000 0.000000 
1.274128 0.986874 -1.348607 13.399742 21.302651 167.088748 -179.964392 66.133013 177.922794 118.860864 -71.325015 -85.061318 0.000000 0.000000 0.000000 29.691942 -73.921607 -31.486523 146.947422 -3.093880 173.787880 0.000000 0.000000 0.000000 38.640900 27.729544 40.938310 -3.680733 -41.882119 52.803185 117.761750 -3.121048 -96.598211 0.000000 0.000000 0.000000 38.180959 -40.910661 -142.450384 -18.672731 -1.768802 -23.693219 0.000000 0.000000 0.000000 32.582584 56.392692 -131.681034 22.081059 -13.329442 127.479935 0.000000 0.000000 0.000000 
1.286520 0.990034 -1.353444 13.049565 16.200418 166.914496 -176.029684 66.507109 -177.295168 119.681553 -70.344350 -84.613756 0.000000 0.000000 0.000000 31.605580 -73.362959 -33.195167 146.092255 -3.316444 173.778618 0.000000 0.000000 0.000000 39.015086 27.428614 41.150442 -3.963814 -41.669963 52.525210 117.854778 -3.554533 -96.658570 0.000000 0.000000 0.000000 37.023939 -41.639425 -141.787050 -19.097223 -2.275083 -22.567158 0.000000 0.000000 0.000000 32.476904 56.318878 -131.454914 22.188138 -13.066511 128.413089 0.000000 0.000000 0.000000 
1.315250 1.007451 -1.379016 11.542408 7.972000 166.025752 -170.190173 67.101909 -170.264226 120.970751 -69.279790 -85.168470 0.000000 0.000000 0.000000 35.673101 -72.744103 -37.162400 143.365384 -4.164749 173.439035 0.000000 0.000000 0.000000 39.404331 26.878632 40.883497 -4.403096 -40.773637 52.597296 118.415618 -3.833843 -96.508483 0.000000 0.000000 0.000000 35.117080 -42.287791 -140.104774 -20.446120 -4.212824 -21.694190 0.000000 0.000000 0.000000 28.463041 56.916332 -133.903031 22.766784 -12.458519 128.437309 0.000000 0.000000 0.000000 
1.352549 1.028974 -1.408940 9.970837 0.447496 165.437441 -164.133079 67.347011 -163.173028 122.998101 -68.362810 -86.789001 0.000000 0.000000 0.000000 39.377895 -72.079936 -40.817333 140.692321 -5.180793 173.205005 0.000000 0.000000 0.000000 39.740660 26.446042 40.589427 -4.822498 -39.808453 52.921788 118.685492 -3.728397 -96.190422 0.000000 0.000000 0.000000 33.507296 -42.444414 -138.553174 -21.719460 -6.246270 -21.337352 0.000000 0.000000 0.000000 24.455253 57.498677 -136.430310 23.287001 -11.741359 128.356357 0.000000 0.000000 0.000000 
1.391864 1.048425 -1.439369 9.511832 -1.123289 165.318773 -161.837507 67.029100 -160.457345 126.276961 -68.378513 -90.759240 0.000000 0.000000 0.000000 38.999151 -72.161707 -40.573048 140.992194 -5.160681 173.016833 0.000000 0.000000 0.000000 39.747265 26.563613 40.564760 -4.907942 -39.600259 53.447538 118.422284 -3.445841 -95.694113 0.000000 0.000000 0.000000 33.435695 -42.183224 -138.370207 -22.093587 -6.536212 -21.324373 0.000000 0.000000 0.000000 24.121824 57.533566 -136.525291 23.847802 -11.630800 128.588775 0.000000 0.000000 0.000000 
1.411469 1.051320 -1.443102 7.561972 -7.137583 164.963986 -159.709248 67.041346 -158.491234 130.651478 -68.756653 -96.781028 0.000000 0.000000 0.000000 38.023100 -73.137748 -40.088177 142.409676 -5.107814 172.906375 0.000000 0.000000 0.000000 39.918429 26.640393 40.352823 -4.659738 -38.808906 54.057133 118.516391 -3.268712 -95.407115 0.000000 0.000000 0.000000 33.064403 -41.249141 -137.871084 -23.344325 -8.050671 -22.344132 0.000000 0.000000 0.000000 20.539458 58.075965 -139.384340 24.543545 -10.841667 128.676188 0.000000 0.000000 0.000000 
